<svg width="24" height="25" viewBox="0 0 24 25" fill="none" xmlns="http://www.w3.org/2000/svg">
<path d="M16.7773 5.33541V2.15112" stroke="#191919" stroke-width="1.71" stroke-linecap="round" stroke-linejoin="round"/>
<path d="M18.3698 3.74341H15.1855" stroke="#191919" stroke-width="1.71" stroke-linecap="round" stroke-linejoin="round"/>
<path d="M11.974 6.90612C9.49041 8.34002 8.68338 11.5918 10.1715 14.1693C11.6595 16.7467 14.8792 17.6737 17.3628 16.2398C17.8205 15.9755 18.4997 16.3448 18.3507 16.8615C17.7715 18.8695 16.4686 20.6451 14.5499 21.7529C10.514 24.083 5.28207 22.5765 2.86396 18.3882C0.445834 14.1999 1.75724 8.91574 5.79307 6.58566C7.71181 5.47788 9.90093 5.23725 11.9295 5.73972C12.4515 5.86903 12.4317 6.64187 11.974 6.90612Z" stroke="#191919" stroke-width="1.71" stroke-linecap="round" stroke-linejoin="round"/>
<path d="M20.7578 11.7038V8.51953" stroke="#191919" stroke-width="1.71" stroke-linecap="round" stroke-linejoin="round"/>
<path d="M22.3493 10.1118H19.165" stroke="#191919" stroke-width="1.71" stroke-linecap="round" stroke-linejoin="round"/>
</svg>
